<svg width="106" height="28" viewBox="0 0 106 28" fill="none" xmlns="http://www.w3.org/2000/svg">
<path d="M24.9358 18.5022C21.4013 20.6337 19.8304 21.3083 14.2762 22.7091C12.2004 23.2326 6.79206 23.8646 1.76521 22.2042C1.29078 22.0476 0.587038 22.2042 0.194317 22.9895C-0.0849765 23.548 -0.26783 24.9731 1.14807 26.0185C2.56397 27.0638 7.31942 28.5987 14.2762 27.7573C21.233 26.9159 26.222 24.8684 28.2978 21.4468C28.6905 20.7994 28.8924 18.9012 27.5727 18.1096C27.0116 17.773 26.255 17.7067 24.9358 18.5022Z" fill="url(#paint0_linear_24_2)"/>
<path fill-rule="evenodd" clip-rule="evenodd" d="M2.74828 8.37603C0.921336 6.94625 1.50715 5.14909 1.90431 4.40441C2.6192 3.06399 3.61482 2.4186 4.33693 2.02144C6.7199 0.710803 11.2873 0.134919 13.2731 0.0356277C16.2518 -0.113306 17.1454 0.234209 17.8901 0.53208C19.6277 1.22711 20.3369 2.61718 20.6206 3.61009C21.3355 6.11221 20.3049 7.99289 19.0638 8.58863C19.0638 8.58863 17.6419 9.28366 16.7979 9.73047C15.9539 10.1773 14.6454 10.9571 13.9185 11.4044C13.422 11.7099 13.156 11.6666 12.578 11.4044C11.2985 10.8238 9.63243 11.0403 8.805 11.4044C7.33821 12.0498 6.57097 13.2909 6.76955 14.4824C6.96813 15.6739 8.50713 16.3689 9.84755 16.2696C11.2353 16.1668 12.7107 15.1872 13.2731 14.0852C13.6206 13.4042 13.9252 13.2964 14.2163 13.1916C16.7979 12.2624 19.3263 11.5946 20.7517 11.7659C21.5779 11.8652 22.5577 12.3617 22.6383 13.7021C22.7376 15.3544 21.9432 16.4822 21.3971 16.929C20.851 17.3758 19.6773 17.7234 18.883 17.9219C18.0887 18.1205 17.5744 18.3191 16.5815 18.5673C15.5886 18.8156 14.7943 19.0439 13.4539 19.312C12.1135 19.5801 9.33333 20.1063 7.49646 19.312C5.65958 18.5177 4.48587 17.3402 4.07093 15.6383C3.656 13.9363 4.19863 12.4826 4.81561 11.4044C5.43259 10.3262 7.62762 8.3404 9.78014 7.69501C11.9327 7.04963 11.8591 7.33348 11.9327 7.43277C12.727 8.50511 13.7187 8.52497 14.2163 8.52497C15.5293 8.52497 16.4629 8.3668 16.7979 8.19147C17.1773 7.99289 17.2943 7.43277 17.2943 7.09927C16.4822 6.95034 14.779 7.26729 14.2163 7.33348C13.8014 7.3823 13.6525 7.19856 13.6206 6.98596C13.5631 6.60282 13.9681 6.44918 14.3156 6.34058C15.5865 5.94341 16.9634 5.87469 17.2943 5.95743C17.2943 5.32197 17.0283 4.86523 16.7979 4.7163C15.7872 4.7163 14.0319 5.75354 13.7021 5.80849C13.1879 5.8942 13.0567 5.46098 13.2731 5.19874C14.1064 4.18863 15.8534 3.74247 16.4326 3.61009C16.3532 3.29236 16.0532 3.01434 15.9539 2.9647C15.4078 2.81576 14.3156 3.08656 13.7199 3.41151C12.8263 3.89893 12.1643 4.51772 11.9327 4.91488C7.80217 5.43119 4.1549 7.43277 2.74828 8.37603Z" fill="url(#paint1_linear_24_2)"/>
<path d="M52.7065 8.052C52.7305 7.644 52.5385 7.476 52.1065 7.5C51.3385 7.524 50.2825 7.5 49.5865 7.404C48.4105 7.236 48.3145 6.252 48.3865 4.956C48.4585 3.66 48.7705 3.156 50.1865 3.228C51.3145 3.276 52.2505 3.276 53.3065 3.228C56.3065 3.084 57.2425 4.14 57.1705 6.732C57.1225 8.532 57.1225 11.652 57.1705 14.172C57.1945 15.348 56.2585 15.684 54.8185 15.684C53.3785 15.684 52.7305 15.348 52.7065 14.172C52.6585 12.084 52.6585 9.42 52.7065 8.052ZM43.5865 8.052C43.6105 7.644 43.4185 7.476 42.9865 7.5C42.2185 7.524 40.9225 7.524 40.2265 7.404C38.8345 7.164 38.8345 6.252 38.9065 4.956C38.9785 3.66 39.2905 3.132 40.9465 3.228C41.8345 3.276 43.3705 3.276 44.1865 3.228C47.4265 3.036 48.1225 4.14 48.0505 6.732C48.0025 8.532 48.0025 11.412 48.0505 13.932C48.0745 15.108 47.1385 15.444 45.6985 15.444C44.2585 15.444 43.6105 15.108 43.5865 13.932C43.5385 11.844 43.5385 9.42 43.5865 8.052ZM46.3705 17.196C46.3705 16.092 47.2585 15.852 48.6025 15.852C49.9465 15.852 50.8345 16.068 50.8345 17.196V20.124H51.0265C53.8105 20.292 55.5625 20.364 57.5785 20.052C58.8985 19.836 59.4265 20.484 59.4985 21.9C59.5465 22.98 59.4985 23.796 58.3465 24.036C56.1385 24.492 53.8585 24.516 48.5065 23.964C45.3865 23.652 42.7465 23.676 39.6985 24.132C38.2585 24.348 37.6105 23.7 37.6105 22.284C37.6105 21.204 37.6825 20.364 39.0745 20.1C40.4905 19.836 42.6505 19.596 46.0825 19.764L46.3705 19.788V17.196ZM65.2335 8.244C68.3775 8.628 71.6655 8.652 74.9775 8.316C75.2895 6.924 74.8335 6.924 72.6735 7.068C70.8975 7.188 65.7855 7.092 64.2255 6.756C63.0255 6.492 62.7855 5.988 62.9535 4.692C63.1455 3.252 63.6975 2.892 64.9695 3.036C68.3535 3.372 72.3615 3.3 74.5695 3.156C78.0255 2.868 79.8735 3.276 79.3695 8.292C79.5615 8.532 79.6815 8.868 79.7775 9.348C79.9935 10.668 79.7055 11.124 78.1935 11.412C75.1215 11.964 71.1855 12.156 67.2735 11.916C66.9855 13.236 67.4655 13.356 70.8735 13.428C72.8895 13.476 77.0895 13.14 78.5295 12.636C79.6575 12.228 80.2815 12.708 80.6895 13.812C81.0735 14.82 81.1215 15.78 79.8975 16.212C77.6175 17.004 72.8655 17.412 68.2575 17.196C65.1615 17.052 63.4815 16.02 63.0015 14.892C62.5935 13.884 62.6895 12.588 62.9295 11.316C62.3775 10.98 62.2815 10.404 62.4255 9.42C62.6655 8.028 63.0975 7.98 65.2335 8.244ZM74.0655 19.884C76.8495 20.052 78.6015 20.124 80.6175 19.812C81.9375 19.596 82.4655 20.244 82.5375 21.66C82.5855 22.74 82.5375 23.556 81.3855 23.796C79.1775 24.252 76.8975 24.276 71.5455 23.724C68.4255 23.412 65.7855 23.436 62.7375 23.892C61.2975 24.108 60.6495 23.46 60.6495 22.044C60.6495 20.964 60.7215 20.124 62.1135 19.86C63.5295 19.596 65.6895 19.356 69.1215 19.524C70.5135 19.596 72.6735 19.812 74.0655 19.884ZM90.6246 8.748C90.5526 9.252 90.5766 9.468 91.5606 9.468C95.2806 9.54 99.9606 9.348 101.305 9.108C102.433 8.916 103.129 8.82 103.489 10.068C103.777 11.052 103.657 11.7 102.529 11.94C100.633 12.396 91.4406 12.516 88.6566 12.228C86.3526 11.988 85.8246 10.74 86.1366 8.868L86.2566 8.124C85.8966 7.86 85.9446 7.428 86.0646 6.852C86.2326 6.108 86.3766 5.868 88.1526 6.012C91.0086 6.252 94.9446 6.348 97.9446 6.06C98.0406 5.388 97.7046 5.292 96.8406 5.34C94.9686 5.46 89.4246 5.388 87.5286 5.196C86.3766 5.076 86.1606 4.62 86.3286 3.588C86.5206 2.508 86.9046 2.244 88.1046 2.34C90.6486 2.508 95.5686 2.58 97.8966 2.364C101.329 2.028 102.817 2.82 102.289 6.012C102.409 6.156 102.505 6.3 102.553 6.516C102.841 7.452 102.577 8.1 101.017 8.34C97.9446 8.724 93.9606 8.844 90.6246 8.676V8.748ZM94.6806 13.62C99.6726 13.788 102.001 13.74 103.729 13.524C104.929 13.38 105.505 13.836 105.577 15.3C105.625 16.38 105.121 16.932 104.185 17.028C102.241 17.292 99.9126 17.292 94.5846 17.076C89.5926 16.908 87.6246 16.908 85.3446 17.076C84.2646 17.172 83.7606 16.74 83.6886 15.468C83.6166 14.316 84.0486 13.668 85.0566 13.596C87.4326 13.452 89.6406 13.428 94.6806 13.62ZM98.9286 22.74C98.9286 22.332 98.7846 22.02 98.3526 22.044C95.1846 22.236 91.1526 22.164 87.5526 21.828C86.1126 21.684 85.9446 21.036 86.1126 19.74C86.2566 18.564 86.7846 18.132 88.3926 18.276C92.0406 18.612 95.1366 18.636 98.5926 18.42C102.025 18.204 103.417 18.9 103.297 21.252C103.225 22.572 103.225 23.556 103.297 24.636C103.369 25.812 102.385 26.148 100.945 26.148C99.6006 26.148 99.0006 25.812 98.9526 24.636L98.9286 22.74Z" fill="#252525"/>
<defs>
<linearGradient id="paint0_linear_24_2" x1="11.2695" y1="20.9007" x2="14.2461" y2="29.6904" gradientUnits="userSpaceOnUse">
<stop stop-color="#FFAA42"/>
<stop offset="0.721154" stop-color="#EB4700"/>
</linearGradient>
<linearGradient id="paint1_linear_24_2" x1="6.5532" y1="0.645388" x2="14.3926" y2="19.475" gradientUnits="userSpaceOnUse">
<stop offset="0.0240385" stop-color="#FF9A1F"/>
<stop offset="0.735577" stop-color="#E34501"/>
</linearGradient>
</defs>
</svg>
