<svg width="144" height="141" viewBox="0 0 144 141" fill="none" xmlns="http://www.w3.org/2000/svg">
<path d="M124.798 92.6625C107.121 103.323 99.2643 106.697 71.486 113.702C61.1042 116.321 34.0555 119.481 8.9147 111.178C6.54193 110.394 3.02232 111.178 1.0582 115.105C-0.338628 117.898 -1.25313 125.026 5.82821 130.254C12.9096 135.482 36.693 143.158 71.486 138.95C106.279 134.742 131.23 124.502 141.612 107.389C143.576 104.152 144.586 94.6578 137.986 90.6988C135.18 89.0157 131.395 88.6838 124.798 92.6625Z" fill="url(#paint0_linear_44_24)"/>
<path fill-rule="evenodd" clip-rule="evenodd" d="M13.8312 42.0185C4.69414 34.8677 7.62397 25.8796 9.61029 22.1552C13.1857 15.4514 18.165 12.2236 21.7766 10.2373C33.6945 3.68238 56.5373 0.802212 66.4689 0.305626C81.3663 -0.439234 85.8356 1.29879 89.5599 2.78853C98.2501 6.26458 101.797 13.2167 103.216 18.1826C106.791 30.6964 101.637 40.1023 95.43 43.0818C95.43 43.0818 88.3185 46.5578 84.0975 48.7924C79.8766 51.0271 73.3322 54.927 69.6967 57.1642C67.2138 58.6922 65.8834 58.4758 62.9928 57.1642C56.5936 54.2607 48.2609 55.3434 44.1227 57.1642C36.7868 60.392 32.9496 66.5993 33.9428 72.5582C34.936 78.5172 42.633 81.9933 49.3368 81.4967C56.2771 80.9826 63.6565 76.0832 66.4689 70.5719C68.2069 67.166 69.7301 66.6269 71.1864 66.1027C84.0975 61.4553 96.7428 58.1156 103.872 58.9724C108.004 59.4689 112.904 61.9519 113.307 68.6557C113.804 76.9194 109.831 82.56 107.1 84.7946C104.369 87.0292 98.4984 88.7673 94.5258 89.7604C90.5531 90.7536 87.9813 91.7467 83.0155 92.9882C78.0497 94.2297 74.077 95.3718 67.3732 96.7126C60.6693 98.0533 46.765 100.685 37.5783 96.7126C28.3915 92.7399 22.5214 86.851 20.4462 78.339C18.371 69.827 21.0849 62.5565 24.1706 57.1642C27.2563 51.7719 38.2343 41.8403 48.9997 38.6125C59.765 35.3847 59.3972 36.8044 59.765 37.301C63.7377 42.664 68.6974 42.7634 71.1864 42.7634C77.753 42.7634 82.4222 41.9723 84.0975 41.0954C85.995 40.1023 86.5804 37.301 86.5804 35.633C82.5189 34.8882 74.0004 36.4733 71.1864 36.8044C69.1112 37.0485 68.3663 36.1296 68.2069 35.0663C67.9196 33.1501 69.945 32.3817 71.683 31.8386C78.0393 29.8522 84.9252 29.5085 86.5804 29.9223C86.5804 26.7442 85.2501 24.4599 84.0975 23.7151C79.0428 23.7151 70.2638 28.9026 68.6146 29.1775C66.0429 29.6061 65.3869 27.4394 66.4689 26.1279C70.6367 21.076 79.3739 18.8447 82.2706 18.1826C81.8734 16.5935 80.3732 15.2031 79.8766 14.9548C77.1454 14.2099 71.683 15.5642 68.7035 17.1894C64.2343 19.6272 60.9237 22.7219 59.765 24.7082C39.1072 27.2905 20.8661 37.301 13.8312 42.0185Z" fill="url(#paint1_linear_44_24)"/>
<defs>
<linearGradient id="paint0_linear_44_24" x1="56.4484" y1="104.658" x2="71.3356" y2="148.618" gradientUnits="userSpaceOnUse">
<stop stop-color="#FFAA42"/>
<stop offset="0.721154" stop-color="#EB4700"/>
</linearGradient>
<linearGradient id="paint1_linear_44_24" x1="32.8608" y1="3.35522" x2="72.0679" y2="97.5277" gradientUnits="userSpaceOnUse">
<stop offset="0.0240385" stop-color="#FF9A1F"/>
<stop offset="0.735577" stop-color="#E34501"/>
</linearGradient>
</defs>
</svg>
