<svg width="25" height="24" viewBox="0 0 25 24" fill="none" xmlns="http://www.w3.org/2000/svg">
<path d="M12.5 2C13.0523 2 13.5 2.44772 13.5 3V4C13.5 4.55228 13.0523 5 12.5 5C11.9477 5 11.5 4.55228 11.5 4V3C11.5 2.44772 11.9477 2 12.5 2Z" fill="black"/>
<path d="M12.5 19C13.0523 19 13.5 19.4477 13.5 20V21C13.5 21.5523 13.0523 22 12.5 22C11.9477 22 11.5 21.5523 11.5 21V20C11.5 19.4477 11.9477 19 12.5 19Z" fill="black"/>
<path d="M21.5 13C22.0523 13 22.5 12.5523 22.5 12C22.5 11.4477 22.0523 11 21.5 11H20.5C19.9477 11 19.5 11.4477 19.5 12C19.5 12.5523 19.9477 13 20.5 13H21.5Z" fill="black"/>
<path d="M5.5 12C5.5 12.5523 5.05228 13 4.5 13H3.5C2.94772 13 2.5 12.5523 2.5 12C2.5 11.4477 2.94772 11 3.5 11H4.5C5.05228 11 5.5 11.4477 5.5 12Z" fill="black"/>
<path d="M17.4497 18.364L18.1569 19.0711C18.5474 19.4616 19.1805 19.4616 19.5711 19.0711C19.9616 18.6805 19.9616 18.0474 19.5711 17.6569L18.864 16.9497C18.4734 16.5592 17.8403 16.5592 17.4497 16.9497C17.0592 17.3403 17.0592 17.9734 17.4497 18.364Z" fill="black"/>
<path d="M7.55025 7.05025C7.15973 7.44078 6.52656 7.44078 6.13604 7.05025L5.42893 6.34315C5.03841 5.95262 5.03841 5.31946 5.42893 4.92893C5.81946 4.53841 6.45262 4.53841 6.84315 4.92893L7.55025 5.63604C7.94078 6.02656 7.94078 6.65973 7.55025 7.05025Z" fill="black"/>
<path d="M5.42893 17.6569C5.03841 18.0474 5.03841 18.6805 5.42893 19.0711C5.81946 19.4616 6.45262 19.4616 6.84315 19.0711L7.55025 18.364C7.94078 17.9734 7.94078 17.3403 7.55025 16.9497C7.15973 16.5592 6.52656 16.5592 6.13604 16.9497L5.42893 17.6569Z" fill="black"/>
<path d="M17.4497 7.05025C17.0592 6.65973 17.0592 6.02656 17.4497 5.63604L18.1569 4.92893C18.5474 4.53841 19.1805 4.53841 19.5711 4.92893C19.9616 5.31946 19.9616 5.95262 19.5711 6.34315L18.864 7.05025C18.4734 7.44078 17.8403 7.44078 17.4497 7.05025Z" fill="black"/>
<path fill-rule="evenodd" clip-rule="evenodd" d="M12.5 6.5C9.46243 6.5 7 8.96243 7 12C7 15.0376 9.46243 17.5 12.5 17.5C15.5376 17.5 18 15.0376 18 12C18 8.96243 15.5376 6.5 12.5 6.5ZM9 12C9 10.067 10.567 8.5 12.5 8.5C14.433 8.5 16 10.067 16 12C16 13.933 14.433 15.5 12.5 15.5C10.567 15.5 9 13.933 9 12Z" fill="black"/>
</svg>
