<svg width="25" height="24" viewBox="0 0 25 24" fill="none" xmlns="http://www.w3.org/2000/svg">
<path fill-rule="evenodd" clip-rule="evenodd" d="M12.3501 4.47236C12.5756 4.78549 12.6008 5.20038 12.4149 5.53848C12.0231 6.25105 11.7998 7.06963 11.7998 7.94335C11.7998 10.7048 14.0384 12.9434 16.7998 12.9434C17.6735 12.9434 18.4921 12.7201 19.2047 12.3283C19.5428 12.1424 19.9577 12.1676 20.2708 12.3931C20.5839 12.6185 20.7394 13.004 20.6703 13.3836C19.9915 17.1145 16.727 19.9434 12.7998 19.9434C8.38153 19.9434 4.7998 16.3616 4.7998 11.9434C4.7998 8.01612 7.62862 4.75168 11.3596 4.07283C11.7392 4.00376 12.1247 4.15924 12.3501 4.47236ZM9.91337 6.68169C8.05755 7.70209 6.7998 9.67646 6.7998 11.9434C6.7998 15.2571 9.4861 17.9434 12.7998 17.9434C15.0667 17.9434 17.0411 16.6856 18.0615 14.8298C17.6519 14.9044 17.2302 14.9434 16.7998 14.9434C12.9338 14.9434 9.7998 11.8093 9.7998 7.94335C9.7998 7.51292 9.83876 7.09121 9.91337 6.68169Z" fill="black"/>
</svg>
