<svg width="25" height="24" viewBox="0 0 25 24" fill="none" xmlns="http://www.w3.org/2000/svg">
<path d="M12.5 3.5C13.0523 3.5 13.5 3.94772 13.5 4.5V5.5C13.5 6.05228 13.0523 6.5 12.5 6.5C11.9477 6.5 11.5 6.05228 11.5 5.5V4.5C11.5 3.94772 11.9477 3.5 12.5 3.5Z" fill="black"/>
<path d="M22.5 13.5C22.5 14.0523 22.0523 14.5 21.5 14.5H20.5C19.9477 14.5 19.5 14.0523 19.5 13.5C19.5 12.9477 19.9477 12.5 20.5 12.5H21.5C22.0523 12.5 22.5 12.9477 22.5 13.5Z" fill="black"/>
<path d="M4.5 14.5C5.05228 14.5 5.5 14.0523 5.5 13.5C5.5 12.9477 5.05228 12.5 4.5 12.5H3.5C2.94772 12.5 2.5 12.9477 2.5 13.5C2.5 14.0523 2.94772 14.5 3.5 14.5H4.5Z" fill="black"/>
<path d="M7.55025 8.55025C7.15973 8.94078 6.52656 8.94078 6.13604 8.55025L5.42893 7.84315C5.03841 7.45262 5.03841 6.81946 5.42893 6.42893C5.81946 6.03841 6.45262 6.03841 6.84315 6.42893L7.55025 7.13604C7.94078 7.52656 7.94078 8.15973 7.55025 8.55025Z" fill="black"/>
<path d="M18.1569 6.42893L17.4497 7.13604C17.0592 7.52656 17.0592 8.15973 17.4497 8.55025C17.8403 8.94078 18.4734 8.94078 18.864 8.55025L19.5711 7.84315C19.9616 7.45262 19.9616 6.81946 19.5711 6.42893C19.1805 6.03841 18.5474 6.03841 18.1569 6.42893Z" fill="black"/>
<path d="M20.5 19.5C20.5 20.0523 20.0523 20.5 19.5 20.5H5.5C4.94771 20.5 4.5 20.0523 4.5 19.5C4.5 18.9477 4.94771 18.5 5.5 18.5H19.5C20.0523 18.5 20.5 18.9477 20.5 19.5Z" fill="black"/>
<path d="M9.38853 15.1054C8.70788 13.7872 8.92186 12.1284 10.0251 11.0251C11.392 9.65829 13.608 9.65829 14.9749 11.0251C16.0781 12.1284 16.2921 13.7872 15.6115 15.1054C15.3581 15.5961 15.5505 16.1993 16.0412 16.4527C16.5319 16.7061 17.1352 16.5137 17.3885 16.023C18.4569 13.9539 18.1256 11.3474 16.3891 9.61091C14.2412 7.46303 10.7588 7.46303 8.61091 9.61091C6.87444 11.3474 6.54306 13.9539 7.61145 16.023C7.86484 16.5137 8.46807 16.7061 8.9588 16.4527C9.44952 16.1993 9.64192 15.5961 9.38853 15.1054Z" fill="black"/>
</svg>
